#!OML:ASF I:\Actors\actors\Patient Classification 2\Patient 1\Session 1\actor1.ASF
:FULLY-SPECIFIED
:DEGREES
108
root -0.927997 18.74 5.94825 6.04557 1.67476 -2.54075
lowerback 10.7796 0.87437 -0.0696498
upperback 0.0498948 1.20028 0.753114
thorax -6.01789 0.60242 0.639038
lowerneck -15.8745 -2.60387 -2.9408
upperneck 16.6546 -3.4452 3.0282
head 7.86665 -1.52569 1.09394
rclavicle -2.50966e-015 -4.07509e-015
rhumerus -65.7637 1.03084 -90.7027
rradius 86.6001
rwrist 21.7504
rhand -4.52248 -36.0636
rfingers 7.12502
rthumb 21.2522 -64.9185
lclavicle -2.50966e-015 -4.07509e-015
lhumerus -55.0847 -8.18652 96.4648
lradius 88.3745
lwrist -15.576
lhand 20.5809 -10.3069
lfingers 7.12502
lthumb 45.0758 13.1627
rfemur 3.01026 -4.4238 17.299
rtibia 4.77083e-015
rfoot -16.7614 -10.3366
rtoes -6.31632
lfemur -12.1238 -2.58988 -10.7143
ltibia 24.4306
lfoot -20.0517 9.29645
ltoes -56.5219
109
root -0.920174 18.7438 5.94148 6.30737 1.64505 -2.51412
lowerback 11.5308 0.946299 0.1893
upperback -0.0422478 1.32341 0.601089
thorax -6.53077 0.651328 0.301061
lowerneck -16.1974 -2.76114 -3.09306
upperneck 16.5053 -3.65945 3.2749
head 7.88864 -1.61004 1.17254
rclavicle 2.43511e-015 -1.49089e-015
rhumerus -66.6926 0.688371 -90.8389
rradius 88.644
rwrist 22.6364
rhand -4.2179 -36.3544
rfingers 7.12502
rthumb 21.5447 -65.1761
lclavicle 2.43511e-015 -1.49089e-015
lhumerus -55.8116 -8.31027 96.5549
lradius 90.5491
lwrist -15.7913
lhand 21.3945 -10.2139
lfingers 7.12502
lthumb 45.8319 12.9503
rfemur 2.68011 -4.41047 17.2535
rtibia 6.36111e-015
rfoot -16.7011 -10.4006
rtoes -6.51406
lfemur -12.4941 -2.47493 -10.7639
ltibia 24.5516
lfoot -20.0107 9.26806
ltoes -56.5678
110
root -0.912484 18.7476 5.93425 6.55773 1.61632 -2.52069
lowerback 11.9771 0.977471 0.253043
upperback 0.0882986 1.3755 0.613558
thorax -6.64288 0.674209 0.262931
lowerneck -16.5213 -2.81884 -3.19994
upperneck 16.1077 -3.70285 3.33524
head 7.81821 -1.63008 1.20181
rclavicle 1.26725e-014 4.67144e-015
rhumerus -67.26 0.580172 -90.8214
rradius 90.6055
rwrist 23.5239
rhand -3.88637 -36.938
rfingers 7.12502
rthumb 21.8631 -65.7229
lclavicle 1.26725e-014 4.67144e-015
lhumerus -56.1085 -8.14037 96.7008
lradius 92.4935
lwrist -16.0633
lhand 21.4297 -10.3784
lfingers 7.12502
lthumb 45.8646 12.7723
rfemur 2.36739 -4.39432 17.2419
rtibia -3.18055e-015
rfoot -16.6282 -10.4082
rtoes -6.06241
lfemur -12.8605 -2.33464 -10.7736
ltibia 24.6797
lfoot -19.9483 9.21699
ltoes -56.6244
111
root -0.906966 18.753 5.92555 6.75093 1.59771 -2.58139
lowerback 12.1685 0.977489 0.123387
upperback 0.458388 1.36711 0.795228
thorax -6.36546 0.677057 0.52887
lowerneck -16.9696 -2.77712 -3.2745
upperneck 15.613 -3.58735 3.27335
head 7.72844 -1.58357 1.20288
rclavicle 1.89342e-014 9.98893e-015
rhumerus -67.4035 0.677448 -90.677
rradius 92.3045
rwrist 24.3291
rhand -5.64184 -36.5916
rfingers 7.12502
rthumb 20.1766 -65.5638
lclavicle 1.89342e-014 9.98893e-015
lhumerus -56.0036 -7.73953 96.948
lradius 94.2671
lwrist -15.9829
lhand 21.3422 -10.5071
lfingers 7.12502
lthumb 45.7833 12.6771
rfemur 2.12082 -4.37876 17.296
rtibia -3.18055e-015
rfoot -16.495 -10.4474
rtoes -5.64307
lfemur -13.1867 -2.09052 -10.7062
ltibia 24.8179
lfoot -19.818 9.05471
ltoes -56.7081
112
root -0.902306 18.7599 5.91052 6.91336 1.63192 -2.64652
lowerback 13.1475 1.01317 0.475114
upperback 0.365257 1.465 0.679617
thorax -7.00324 0.709411 0.173016
lowerneck -17.2484 -2.85281 -3.30066
upperneck 15.4918 -3.70773 3.45757
head 7.74517 -1.62179 1.25119
rclavicle 1.41634e-014 -8.94531e-016
rhumerus -68.1948 0.11126 -90.7569
rradius 93.9051
rwrist 25.1772
rhand -7.12758 -36.2632
rfingers 7.12502
rthumb 18.7481 -65.3798
lclavicle 1.41634e-014 -8.94531e-016
lhumerus -56.6056 -7.79705 97.0932
lradius 95.9705
lwrist -15.5379
lhand 21.0269 -10.5278
lfingers 7.12502
lthumb 45.4905 12.776
rfemur 1.89244 -4.41334 17.3575
rtibia -1.59028e-015
rfoot -16.2658 -10.5456
rtoes -5.35312
lfemur -13.5471 -1.79316 -10.626
ltibia 24.9956
lfoot -19.6524 8.83333
ltoes -56.7845
113
root -0.896314 18.7662 5.88879 7.02635 1.65065 -2.71922
lowerback 13.9251 1.00315 0.626884
upperback 0.522298 1.48056 0.680265
thorax -7.26814 0.710033 0.0723567
lowerneck -17.5827 -2.86163 -3.22039
upperneck 15.1145 -3.71524 3.43726
head 7.67628 -1.621 1.22744
rclavicle 2.29099e-014 1.12313e-014
rhumerus -68.6031 -0.200458 -90.8217
rradius 95.4686
rwrist 25.9973
rhand -7.21293 -36.3058
rfingers 7.12502
rthumb 18.666 -65.4303
lclavicle 2.29099e-014 1.12313e-014
lhumerus -56.7635 -7.53744 97.1717
lradius 97.611
lwrist -15.6735
lhand 20.7682 -10.5685
lfingers 7.12502
lthumb 45.25 12.8319
rfemur 1.68466 -4.42978 17.4068
rtibia 1.59028e-015
rfoot -16.0008 -10.6374
rtoes -4.88402
lfemur -13.8995 -1.57097 -10.5485
ltibia 25.2308
lfoot -19.5241 8.68833
ltoes -56.7113
114
root -0.909128 18.7842 5.80823 8.08069 2.718 -2.49066
lowerback 14.1284 0.626359 0.308014
upperback 0.526613 0.945262 0.845494
thorax -7.3861 0.463789 0.532688
lowerneck -18.1532 -2.79881 -3.14695
upperneck 14.7 -3.58078 3.22973
head 7.6267 -1.56924 1.15781
rclavicle 8.36138e-015 7.30534e-015
rhumerus -68.6307 -0.194101 -90.8207
rradius 97.0265
rwrist 26.5767
rhand -7.20454 -36.7052
rfingers 7.12502
rthumb 18.6741 -65.8288
lclavicle 8.36138e-015 7.30534e-015
lhumerus -56.6082 -6.91649 97.2892
lradius 99.2971
lwrist -16.2686
lhand 20.7938 -10.6837
lfingers 7.12502
lthumb 45.2739 12.7071
rfemur 0.407692 -5.56494 17.3886
rtibia 9.54166e-015
rfoot -15.5915 -10.8559
rtoes -4.34271
lfemur -15.8365 -1.56404 -10.6043
ltibia 25.5553
lfoot -18.6899 8.03675
ltoes -56.6939
